<svg width="256" height="256" viewBox="0 0 256 256" fill="none" xmlns="http://www.w3.org/2000/svg">
<rect width="256" height="256" fill="#FDFF37"/>
<path d="M202.264 130.177C202.264 179.105 188.32 218.769 171.119 218.769C153.919 218.769 139.975 179.105 139.975 130.177C139.975 81.2482 153.919 41.584 171.119 41.584C188.32 41.584 202.264 81.2482 202.264 130.177Z" fill="#1E1E1E"/>
<path d="M146.894 130.17C146.894 166.87 137.478 196.622 125.864 196.622C114.249 196.622 104.834 166.87 104.834 130.17C104.834 93.469 114.249 63.7173 125.864 63.7173C137.478 63.7173 146.894 93.469 146.894 130.17Z" fill="#1E1E1E"/>
<path d="M104.831 130.177C104.831 154.641 98.5548 174.473 90.8129 174.473C83.071 174.473 76.7949 154.641 76.7949 130.177C76.7949 105.714 83.071 85.8818 90.8129 85.8818C98.5548 85.8818 104.831 105.714 104.831 130.177Z" fill="#1E1E1E"/>
<path d="M67.7516 130.172C67.7516 142.402 64.6142 152.316 60.744 152.316C56.8738 152.316 53.7363 142.402 53.7363 130.172C53.7363 117.943 56.8738 108.029 60.744 108.029C64.6142 108.029 67.7516 117.943 67.7516 130.172Z" fill="#1E1E1E"/>
</svg>
