<svg width="130" height="34" viewBox="0 0 130 34" fill="none" xmlns="http://www.w3.org/2000/svg">
<path d="M28.8782 16.9814C28.8782 26.2036 26.25 33.6796 23.008 33.6796C19.7659 33.6796 17.1377 26.2036 17.1377 16.9814C17.1377 7.75924 19.7659 0.283203 23.008 0.283203C26.25 0.283203 28.8782 7.75924 28.8782 16.9814Z" fill="#1E1E1E"/>
<path d="M18.4412 16.9802C18.4412 23.8976 16.6666 29.5053 14.4774 29.5053C12.2883 29.5053 10.5137 23.8976 10.5137 16.9802C10.5137 10.0628 12.2883 4.45508 14.4774 4.45508C16.6666 4.45508 18.4412 10.0628 18.4412 16.9802Z" fill="#1E1E1E"/>
<path d="M10.5118 16.9818C10.5118 21.5928 9.32891 25.3307 7.86969 25.3307C6.41047 25.3307 5.22754 21.5928 5.22754 16.9818C5.22754 12.3708 6.41047 8.63281 7.86969 8.63281C9.32891 8.63281 10.5118 12.3708 10.5118 16.9818Z" fill="#1E1E1E"/>
<path d="M3.52446 16.9803C3.52446 19.2854 2.93311 21.154 2.20364 21.154C1.47417 21.154 0.882812 19.2854 0.882812 16.9803C0.882812 14.6753 1.47417 12.8066 2.20364 12.8066C2.93311 12.8066 3.52446 14.6753 3.52446 16.9803Z" fill="#1E1E1E"/>
<path d="M130.002 19.9693V29.9623H125.958V21.3448C125.958 20.7814 125.92 20.1572 125.842 19.4722C125.765 18.7872 125.583 18.1299 125.295 17.5001C125.019 16.8593 124.599 16.3346 124.036 15.9258C123.484 15.517 122.732 15.3126 121.782 15.3126C121.274 15.3126 120.771 15.3955 120.274 15.5612C119.777 15.7269 119.33 16.0142 118.932 16.4229C118.534 16.8207 118.208 17.3731 117.954 18.0801C117.711 18.7762 117.589 19.6711 117.589 20.7648L115.883 19.7539C115.883 18.2293 116.087 16.8483 116.496 15.6109C116.904 14.3735 117.661 13.3903 118.766 12.6611C119.882 11.9209 121.279 11.5508 122.959 11.5508C124.285 11.5508 125.378 11.7717 126.24 12.2137C127.102 12.6556 127.787 13.219 128.295 13.904C128.803 14.589 129.179 15.3181 129.422 16.0915C129.665 16.8649 129.82 17.5996 129.886 18.2956C129.963 18.9806 130.002 19.5385 130.002 19.9693ZM117.573 15.4452V29.9623H113.546V12.0645H117.076V12.7605C117.076 13.1583 116.976 13.6168 116.777 14.136C116.579 14.6442 116.358 15.0806 116.115 15.4452H117.573Z" fill="#1E1E1E"/>
<path d="M107.674 29.2672C106.337 30.0627 104.774 30.4604 102.984 30.4604C101.194 30.4604 99.6311 30.0572 98.2942 29.2507C96.9574 28.4442 95.9189 27.3338 95.1787 25.9197C94.4495 24.4945 94.085 22.8594 94.085 21.0144C94.085 19.1362 94.4606 17.4901 95.2119 16.0759C95.9631 14.6618 97.0072 13.557 98.344 12.7615C99.6808 11.9661 101.227 11.5684 102.984 11.5684C104.785 11.5684 106.354 11.9716 107.691 12.7781C109.038 13.5846 110.077 14.7005 110.806 16.1257C111.546 17.5398 111.916 19.1694 111.916 21.0144C111.916 22.8705 111.546 24.5111 110.806 25.9363C110.066 27.3504 109.022 28.4607 107.674 29.2672ZM99.4874 25.174C100.283 26.2014 101.448 26.7152 102.984 26.7152C104.575 26.7152 105.757 26.1848 106.531 25.1242C107.304 24.0636 107.691 22.6937 107.691 21.0144C107.691 19.2799 107.298 17.8989 106.514 16.8714C105.73 15.8329 104.553 15.3136 102.984 15.3136C101.912 15.3136 101.034 15.5567 100.349 16.0428C99.6642 16.5179 99.1505 17.1863 98.808 18.048C98.4765 18.8987 98.3108 19.8875 98.3108 21.0144C98.3108 22.7489 98.703 24.1354 99.4874 25.174Z" fill="#1E1E1E"/>
<path d="M92.1013 5.68359V9.346H88.1074V5.68359H92.1013ZM92.1013 12.0638V29.9615H88.1074V12.0638H92.1013Z" fill="#1E1E1E"/>
<path d="M80.5553 19.8542L80.5387 29.9631H76.5283V12.0653H80.0582V12.8774C80.0582 13.4298 80.0029 13.9932 79.8924 14.5677C79.782 15.1312 79.6273 15.7498 79.4284 16.4238H79.8096C80.3399 14.8771 80.7597 13.8606 81.069 13.3745C81.3894 12.8884 81.7816 12.5404 82.2457 12.3305C82.7207 12.1206 83.3173 12.0156 84.0354 12.0156H86.6041V15.6946L83.704 15.7112C82.5771 15.7001 81.7706 15.9763 81.2845 16.5398C80.7652 17.1695 80.5222 18.2743 80.5553 19.8542Z" fill="#1E1E1E"/>
<path d="M68.4197 29.5655C67.3701 30.1621 66.0388 30.4604 64.4258 30.4604C63.1332 30.4604 62.0394 30.2174 61.1446 29.7313C60.2497 29.2341 59.5702 28.5767 59.1062 27.7592C58.6532 26.9416 58.4268 26.0412 58.4268 25.058C58.4268 24.1962 58.5538 23.4118 58.8079 22.7047C59.062 21.9866 59.4818 21.3403 60.0674 20.7658C60.6529 20.1803 61.4152 19.7273 62.3543 19.4069C63.5585 18.9871 64.6744 18.7551 65.7019 18.7109C66.7404 18.6556 67.696 18.628 68.5688 18.628C69.4416 18.628 70.5243 18.6446 71.8169 18.6777L70.3089 18.9595C70.3199 17.6448 70.0437 16.6946 69.4803 16.1091C68.9168 15.5235 67.9667 15.2308 66.6299 15.2308C65.8234 15.2308 65.0445 15.4186 64.2932 15.7942C63.542 16.1698 63.1442 16.783 63.1001 17.6337L59.0731 17.5674C59.1394 15.4352 59.8851 13.905 61.3103 12.977C62.7465 12.0379 64.5197 11.5684 66.6299 11.5684C68.2318 11.5684 69.6349 11.828 70.8392 12.3472C72.0434 12.8665 72.9383 13.7172 73.5238 14.8993C73.8442 15.5291 74.0376 16.1754 74.1039 16.8382C74.1701 17.4901 74.2033 18.2027 74.2033 18.976V29.9633H70.7066V29.3335C70.7066 28.7811 70.8116 28.3226 71.0215 27.9581C71.2424 27.5824 71.5407 27.1515 71.9164 26.6654L71.5683 26.3837C70.5298 27.8973 69.4803 28.9579 68.4197 29.5655ZM63.6304 26.9803C64.0612 27.1792 64.5915 27.2786 65.2213 27.2786C66.1272 27.2786 66.9006 27.1184 67.5413 26.798C68.1821 26.4666 68.6903 26.0744 69.066 25.6214C69.4526 25.1574 69.7123 24.721 69.8449 24.3122C70.0548 23.804 70.1708 23.2516 70.1929 22.655C70.226 22.0584 70.2426 21.5557 70.2426 21.147L71.5518 21.9424C70.2812 21.8872 69.1985 21.8651 68.3037 21.8761C67.4088 21.8872 66.6409 21.9203 66.0002 21.9756C65.3704 22.0308 64.807 22.1634 64.3098 22.3733C63.8789 22.5832 63.5199 22.8152 63.2326 23.0693C62.9564 23.3124 62.7355 23.5996 62.5698 23.9311C62.4151 24.2625 62.3377 24.6216 62.3377 25.0082C62.3377 25.4391 62.4482 25.8258 62.6692 26.1683C62.8901 26.5108 63.2105 26.7814 63.6304 26.9803Z" fill="#1E1E1E"/>
<path d="M56.446 5.60156V29.9624H52.4521V5.60156H56.446Z" fill="#1E1E1E"/>
<path d="M40.5879 20.2521C40.6984 20.5172 40.7536 20.8432 40.7536 21.2298V29.9633H36.7598V6.09961H51.1277V10.0935H41.7811C41.4828 10.0935 41.2342 10.0327 41.0353 9.91117C40.8475 9.78964 40.6431 9.60182 40.4222 9.34772L40.1405 9.61287C40.3614 9.81173 40.5161 10.0216 40.6045 10.2426C40.7039 10.4636 40.7536 10.7674 40.7536 11.1541V14.9822C40.7536 15.2915 40.6984 15.5401 40.5879 15.7279C40.4774 15.9157 40.3117 16.0925 40.0907 16.2582L40.3559 16.5731C40.7426 16.2085 41.2121 16.0318 41.7645 16.0428H49.139V20.0201H41.6982C41.4552 20.009 41.2342 19.9427 41.0353 19.8212C40.8475 19.6997 40.6321 19.5119 40.389 19.2578L40.1239 19.5229C40.3338 19.7439 40.4885 19.9869 40.5879 20.2521Z" fill="#1E1E1E"/>
</svg>
